<svg xmlns="http://www.w3.org/2000/svg" viewBox="0 0 480 554" width="480" height="554">
<defs>
<filter id="shadow" x="-30%" y="-30%" width="160%" height="160%">
  <feDropShadow dx="0" dy="18" stdDeviation="16" flood-color="#171712" flood-opacity=".25"/>
</filter>
<filter id="soft" x="-20%" y="-20%" width="140%" height="140%">
  <feGaussianBlur stdDeviation="18"/>
</filter>
<filter id="mono">
  <feColorMatrix type="saturate" values=".12"/>
  <feComponentTransfer><feFuncR type="linear" slope="1.08"/><feFuncG type="linear" slope="1.04"/><feFuncB type="linear" slope=".96"/></feComponentTransfer>
</filter>
<pattern id="grain" width="90" height="90" patternUnits="userSpaceOnUse">
  <filter id="noise"><feTurbulence type="fractalNoise" baseFrequency=".7" numOctaves="2" seed="11"/></filter>
  <rect width="90" height="90" filter="url(#noise)" opacity=".055"/>
</pattern>
</defs>

<rect width="480" height="554" fill="#b9b5ad"/>
<ellipse cx="240" cy="505" rx="160" ry="25" fill="#151612" opacity=".2" filter="url(#soft)"/>
<g filter="url(#shadow)">
  <path d="M171 121c8-47 37-75 69-75s61 28 69 75l-25 35h-88z" fill="#2b2c28"/>
  <path d="M165 124l-86 52 41 94 52-27v235h136V243l52 27 41-94-86-52-45 28h-60z" fill="#242521"/>
  <path d="M196 151c13 25 75 25 88 0" fill="none" stroke="#3e403a" stroke-width="8"/>
  <path d="M206 151l-10 94M274 151l10 94" stroke="#aaa69e" stroke-width="2"/>
  <circle cx="196" cy="241" r="31" fill="#e8e2d6"/>
  <clipPath id="faceclip2"><circle cx="196" cy="241" r="27"/></clipPath>
  <image href="ethan-face.svg" x="169" y="214" width="54" height="54" preserveAspectRatio="xMidYMid slice" clip-path="url(#faceclip2)" filter="url(#mono)"/>
  <path d="M196 205v72M160 241h72" stroke="#242521" stroke-width="2.2" opacity=".7"/>
  <text x="238" y="230" font-family="Arial,Helvetica,sans-serif" font-size="16" font-weight="700" letter-spacing="2.4" fill="#ede8dd">STAND</text>
  <text x="238" y="251" font-family="Arial,Helvetica,sans-serif" font-size="16" font-weight="700" letter-spacing="2.4" fill="#ede8dd">FIRM.</text>
  <text x="238" y="269" font-family="Arial,Helvetica,sans-serif" font-size="7.8" letter-spacing="1.5" fill="#aaa69e">1 CORINTHIANS 16:13</text>
  <path d="M183 388c25 18 89 18 114 0l-13 61h-88z" fill="#1c1d1a"/>
</g>
<text x="24" y="32" font-family="Arial,sans-serif" font-size="10" letter-spacing="2" fill="#33342f">STRANDLESS / FAITH BUILT</text>
<text x="456" y="527" text-anchor="end" font-family="Arial,sans-serif" font-size="9" letter-spacing="1.5" fill="#33342f">ETHAN DART PORTRAIT EDITION</text>
<rect width="480" height="554" fill="url(#grain)"/>

</svg>